<?xml version="1.0" encoding="utf-8"?>
<!-- Generator: Adobe Illustrator 22.1.0, SVG Export Plug-In . SVG Version: 6.00 Build 0)  -->
<svg version="1.1" id="Capa_1" xmlns="http://www.w3.org/2000/svg" xmlns:xlink="http://www.w3.org/1999/xlink" x="0px" y="0px"
	 viewBox="0 0 40 37.3" style="enable-background:new 0 0 40 37.3;" xml:space="preserve">
<title>ic_play_all_1</title>
<g>
	<path d="M39.6,16.2L21.3,0.5c-0.7-0.6-1.8-0.6-2.6,0L0.4,16.2c-0.4,0.4-0.5,1-0.2,1.5l0.4,0.6l2.3,3c0.4,0.5,1,0.6,1.5,0.2
		c0,0,0,0,0.1,0L5,21.1l0.9-0.8v15c0,1.1,0.9,2,2,2h7v-7.1c0-0.4,0.4-0.8,0.8-0.8h0h8.6c0.4,0,0.8,0.4,0.8,0.8l0,0v7.1h7
		c1.1,0,2-0.9,2-2v-15l0.9,0.8l0.5,0.4c0.5,0.4,1.1,0.3,1.5-0.2c0,0,0,0,0,0l2.7-3.7C40.1,17.2,40,16.6,39.6,16.2z"/>
</g>
</svg>
