<?xml version="1.0" encoding="utf-8"?>
<!-- Generator: Adobe Illustrator 22.1.0, SVG Export Plug-In . SVG Version: 6.00 Build 0)  -->
<svg version="1.1" id="Capa_1" xmlns="http://www.w3.org/2000/svg" xmlns:xlink="http://www.w3.org/1999/xlink" x="0px" y="0px"
	 viewBox="0 0 39.9 37.3" style="enable-background:new 0 0 39.9 37.3;" xml:space="preserve">
<style type="text/css">
	.st0{enable-background:new    ;}
</style>
<path d="M39.8,35V13c0-1-0.8-1.7-1.7-1.7h-5.9c-0.3,0-0.5-0.2-0.5-0.5V1.7c0-1-0.8-1.7-1.7-1.7H9.9C9,0,8.2,0.8,8.2,1.7v6.4
	c0,0.3-0.2,0.5-0.5,0.5H1.7c-1,0-1.7,0.8-1.7,1.7V35c0,0.5,0.4,0.9,0.9,0.9h7.3h8.2h7h8.4h7.2C39.4,35.9,39.8,35.5,39.8,35z
	 M8.5,29.2c0,0-0.1,0.1-0.1,0.1H3.7c-0.1,0-0.1,0-0.1-0.1v-4.7c0-0.1,0.1-0.1,0.1-0.1h4.7c0.1,0,0.1,0,0.1,0.1V29.2z M8.5,20.6
	c0,0.1-0.1,0.1-0.1,0.1H3.7c-0.1,0-0.1,0-0.1-0.1v-4.7c0-0.1,0.1-0.1,0.1-0.1h4.7c0.1,0,0.1,0.1,0.1,0.1V20.6z M17.8,29.2
	c0,0-0.1,0.1-0.1,0.1H13c-0.1,0-0.1,0-0.1-0.1v-4.7c0-0.1,0.1-0.1,0.1-0.1h4.7c0,0,0.1,0,0.1,0.1V29.2z M17.8,20.6
	c0,0.1-0.1,0.1-0.1,0.1H13c-0.1,0-0.1,0-0.1-0.1v-4.7c0-0.1,0.1-0.1,0.1-0.1h4.7c0,0,0.1,0.1,0.1,0.1V20.6z M17.8,11.6
	c0,0.1-0.1,0.1-0.1,0.1H13c-0.1,0-0.1-0.1-0.1-0.1V6.9c0,0,0.1-0.1,0.1-0.1h4.7c0,0,0.1,0.1,0.1,0.1V11.6z M26.4,29.2
	c0,0,0,0.1-0.1,0.1h-4.7c0,0-0.1,0-0.1-0.1v-4.7c0-0.1,0-0.1,0.1-0.1h4.7c0.1,0,0.1,0,0.1,0.1C26.4,24.5,26.4,29.2,26.4,29.2z
	 M26.4,20.6c0,0.1,0,0.1-0.1,0.1h-4.7c0,0-0.1,0-0.1-0.1v-4.7c0-0.1,0-0.1,0.1-0.1h4.7c0.1,0,0.1,0.1,0.1,0.1
	C26.4,15.9,26.4,20.6,26.4,20.6z M26.4,11.6c0,0.1,0,0.1-0.1,0.1h-4.7c0,0-0.1-0.1-0.1-0.1V6.9c0,0,0-0.1,0.1-0.1h4.7
	c0.1,0,0.1,0.1,0.1,0.1C26.4,6.9,26.4,11.6,26.4,11.6z M35.7,29.2c0,0,0,0.1-0.1,0.1h-4.7c-0.1,0-0.1,0-0.1-0.1v-4.7
	c0-0.1,0-0.1,0.1-0.1h4.7c0.1,0,0.1,0,0.1,0.1V29.2z M35.7,20.6c0,0.1,0,0.1-0.1,0.1h-4.7c-0.1,0-0.1,0-0.1-0.1v-4.7
	c0-0.1,0-0.1,0.1-0.1h4.7c0.1,0,0.1,0.1,0.1,0.1V20.6z"/>
<text transform="matrix(1 0 0 1 63.0744 78.825)" style="font-family:'HelveticaNeue-Bold'; font-size:5px;">Created by Nubaia Karim Barsha</text>
<text transform="matrix(1 0 0 1 63.0744 83.825)" style="font-family:'HelveticaNeue-Bold'; font-size:5px;">from the Noun Project</text>
</svg>
