<?xml version="1.0" encoding="utf-8"?>
<!-- Generator: Adobe Illustrator 22.1.0, SVG Export Plug-In . SVG Version: 6.00 Build 0)  -->
<svg version="1.1"
	 id="Capa_1" xmlns:cc="http://creativecommons.org/ns#" xmlns:dc="http://purl.org/dc/elements/1.1/" xmlns:inkscape="http://www.inkscape.org/namespaces/inkscape" xmlns:rdf="http://www.w3.org/1999/02/22-rdf-syntax-ns#" xmlns:sodipodi="http://sodipodi.sourceforge.net/DTD/sodipodi-0.dtd" xmlns:svg="http://www.w3.org/2000/svg"
	 xmlns="http://www.w3.org/2000/svg" xmlns:xlink="http://www.w3.org/1999/xlink" x="0px" y="0px" viewBox="0 0 39.9 37.3"
	 style="enable-background:new 0 0 39.9 37.3;" xml:space="preserve">
<path d="M27.7,17.2c0-3.8,0-4.9-0.1-5.1c-0.3-0.9-1-1.7-1.9-1.9c-0.2,0-2.3-0.1-4.7-0.1V8.5c1.3-0.3,2.4-1.2,2.9-2.4
	c0.3-0.7,0.4-1.8,0.3-2.6c-0.5-2.3-2.7-3.8-5-3.4c-2.1,0.4-3.5,2.1-3.5,4.2c0,2,1.4,3.7,3.2,4.2v1.7c-2.4,0-4.5,0-4.7,0.1
	c-0.9,0.3-1.7,1-1.9,1.9c0,0.1-0.1,2.1-0.1,5.1c0,5.3,0,5.2,0.3,5.8c0.4,0.6,1.2,1.2,1.9,1.3l0.3,0v5.2c0,3.5,0,5.3,0.1,5.6
	c0.2,0.9,0.8,1.7,1.7,2c0.3,0.1,0.6,0.1,3.4,0.1c2.9,0,3.1,0,3.4-0.1c0.8-0.3,1.3-0.8,1.6-1.6c0.1-0.3,0.1-0.4,0.1-5.8l0-5.4l0.3,0
	c0.7-0.1,1.6-0.6,1.9-1.3C27.7,22.4,27.7,22.5,27.7,17.2z"/>
</svg>
