<?xml version="1.0" encoding="utf-8"?>
<!-- Generator: Adobe Illustrator 22.1.0, SVG Export Plug-In . SVG Version: 6.00 Build 0)  -->
<svg version="1.1" id="Capa_1" xmlns="http://www.w3.org/2000/svg" xmlns:xlink="http://www.w3.org/1999/xlink" x="0px" y="0px"
	 viewBox="0 0 39.9 37.3" style="enable-background:new 0 0 39.9 37.3;" xml:space="preserve">
<path d="M35.9,12.3h-4.3v-1.9c1.5-0.6,2.5-2,2.5-3.7c0-2.2-1.8-3.9-3.9-3.9c-2.2,0-3.9,1.8-3.9,3.9c0,1.9,1.4,3.6,3.3,3.9v1.7h-0.1
	c0.1,0.3,0.1,0.6,0.1,1v16.1c0,1.9-1.4,3.4-3.1,3.8v3.3H25v-4.8h0.9c1.2,0,2.3-1,2.3-2.3V13.2c0-0.3-0.1-0.7-0.2-1
	c-0.3-0.8-1.2-1.3-2.1-1.3H21V9.4c2.1-0.5,3.6-2.4,3.6-4.6c0-2.6-2.1-4.8-4.7-4.8s-4.8,2.1-4.8,4.8c0,2.2,1.5,4.1,3.5,4.6v1.6H14
	c-0.9,0-1.7,0.5-2.1,1.3c-0.1,0.3-0.2,0.6-0.2,1v16.1c0,1.2,1,2.3,2.3,2.3h0.8v4.8h-1.5V33c-1.8-0.3-3.1-1.9-3.1-3.8V13.2
	c0-0.3,0-0.7,0.1-1l0,0v-1.7c1.8-0.4,3.1-2,3.1-3.8c0-2.2-1.8-3.9-3.9-3.9c-2.2,0-3.9,1.8-3.9,3.9c0,1.7,1.1,3.1,2.6,3.7v1.8H3.8
	C2.8,12.2,2,13,2,14v13.8c0,1,0.8,1.8,1.8,1.8h0.9v7.7h7.7h1h1.5H25h1.5H27H35v-7.7h0.9c1,0,1.8-0.8,1.8-1.8V14
	C37.7,13,36.9,12.3,35.9,12.3z"/>
</svg>
